<?xml version="1.0" encoding="utf-8"?>
<!-- Generator: Adobe Illustrator 16.0.0, SVG Export Plug-In . SVG Version: 6.00 Build 0)  -->
<!DOCTYPE svg PUBLIC "-//W3C//DTD SVG 1.1//EN" "http://www.w3.org/Graphics/SVG/1.1/DTD/svg11.dtd">
<svg version="1.1" id="Layer_1" xmlns="http://www.w3.org/2000/svg" xmlns:xlink="http://www.w3.org/1999/xlink" x="0px" y="0px"
	 width="102.041px" height="49.66px" viewBox="0 0 102.041 49.66" enable-background="new 0 0 102.041 49.66" xml:space="preserve">
<g>
	<g>
		<g>
			
				<ellipse transform="matrix(0.8959 0.4443 -0.4443 0.8959 12.9857 -32.0698)" fill="#00A9FF" cx="74.922" cy="11.673" rx="1.391" ry="2.318"/>
			<path fill="#00A9FF" d="M75.197,20.16c-0.567,1.146-1.586,1.797-2.274,1.456c-0.688-0.341-0.784-1.547-0.216-2.693
				c0.57-1.148,1.59-1.8,2.279-1.458C75.673,17.808,75.769,19.014,75.197,20.16z"/>
			
				<ellipse transform="matrix(0.8954 0.4452 -0.4452 0.8954 19.8096 -29.6366)" fill="#00A9FF" cx="72.986" cy="27.346" rx="1.392" ry="2.319"/>
			
				<ellipse transform="matrix(0.8956 0.4449 -0.4449 0.8956 13.2272 -29.3329)" fill="#00A9FF" cx="69.097" cy="13.509" rx="1.632" ry="2.721"/>
			
				<ellipse transform="matrix(0.8956 0.4449 -0.4449 0.8956 16.6072 -28.0893)" fill="#00A9FF" cx="68.138" cy="21.331" rx="1.632" ry="2.719"/>
			
				<ellipse transform="matrix(0.8957 0.4447 -0.4447 0.8957 19.9737 -26.8167)" fill="#00A9FF" cx="67.145" cy="29.164" rx="1.632" ry="2.72"/>
			
				<ellipse transform="matrix(0.8956 0.4449 -0.4449 0.8956 13.4491 -26.5677)" fill="#00A9FF" cx="63.321" cy="15.366" rx="2.04" ry="3.244"/>
			
				<ellipse transform="matrix(0.8954 0.4453 -0.4453 0.8954 16.8421 -25.3549)" fill="#00A9FF" cx="62.382" cy="23.166" rx="2.04" ry="3.244"/>
			
				<ellipse transform="matrix(0.8957 0.4447 -0.4447 0.8957 20.1829 -24.0784)" fill="#00A9FF" cx="61.41" cy="30.977" rx="2.04" ry="3.246"/>
			
				<ellipse transform="matrix(0.8956 0.4448 -0.4448 0.8956 13.6658 -23.7951)" fill="#00A9FF" cx="57.533" cy="17.22" rx="2.38" ry="3.893"/>
			
				<ellipse transform="matrix(0.8955 0.4452 -0.4452 0.8955 17.0722 -22.5317)" fill="#00A9FF" cx="56.505" cy="25.08" rx="2.38" ry="3.895"/>
			
				<ellipse transform="matrix(0.8956 0.4449 -0.4449 0.8956 20.4324 -21.3029)" fill="#00A9FF" cx="55.597" cy="32.875" rx="2.379" ry="3.895"/>
			
				<ellipse transform="matrix(0.8956 0.4448 -0.4448 0.8956 13.8582 -20.9946)" fill="#00A9FF" cx="51.664" cy="19.032" rx="2.812" ry="4.605"/>
			
				<ellipse transform="matrix(0.8956 0.445 -0.445 0.8956 17.2557 -19.7992)" fill="#00A9FF" cx="50.801" cy="26.856" rx="2.813" ry="4.606"/>
			
				<ellipse transform="matrix(0.8957 0.4447 -0.4447 0.8957 20.6467 -18.5421)" fill="#00A9FF" cx="49.84" cy="34.73" rx="2.813" ry="4.607"/>
		</g>
		<g>
			
				<ellipse transform="matrix(0.8956 0.4449 -0.4449 0.8956 12.8617 -13.6787)" fill="#FFFFFF" cx="35.568" cy="20.558" rx="1.632" ry="2.721"/>
			
				<ellipse transform="matrix(0.8957 0.4447 -0.4447 0.8957 16.2304 -12.43)" fill="#FFFFFF" cx="34.609" cy="28.379" rx="1.632" ry="2.72"/>
			
				<ellipse transform="matrix(0.8955 0.4451 -0.4451 0.8955 19.6332 -11.1775)" fill="#FFFFFF" cx="33.615" cy="36.214" rx="1.632" ry="2.721"/>
			
				<ellipse transform="matrix(0.8954 0.4452 -0.4452 0.8954 13.0828 -10.8834)" fill="#FFFFFF" cx="29.707" cy="22.405" rx="1.391" ry="2.319"/>
			
				<ellipse transform="matrix(0.8957 0.4446 -0.4446 0.8957 16.4567 -9.6205)" fill="#FFFFFF" cx="28.738" cy="30.273" rx="1.39" ry="2.319"/>
			<path fill="#FFFFFF" d="M29.017,38.696c-0.569,1.149-1.589,1.801-2.277,1.457c-0.688-0.342-0.784-1.547-0.214-2.692
				s1.589-1.798,2.277-1.458C29.49,36.346,29.586,37.551,29.017,38.696z"/>
			<g>
				<g>
					<path fill="#FFFFFF" d="M43.197,31.338c-0.972,1.956-0.793,4.022,0.399,4.614c0.74,0.367,1.694,0.08,2.545-0.656
						c0.084-0.686,0.28-1.396,0.625-2.092c0.343-0.69,0.787-1.272,1.278-1.752c-0.708-0.545-1.089-1.507-1.129-2.647
						C45.733,28.414,44.118,29.485,43.197,31.338z M45.358,20.382c0.756,0.375,1.736,0.066,2.601-0.707
						c0.114-0.698,0.331-1.423,0.688-2.141c0.346-0.696,0.775-1.299,1.246-1.806c0.075-1.126-0.273-2.064-1.014-2.432
						c-1.192-0.594-2.947,0.513-3.919,2.47S44.165,19.791,45.358,20.382z M47.89,21.131c-1.186-0.457-2.846,0.625-3.784,2.511
						c-0.973,1.958-0.793,4.023,0.398,4.615c0.725,0.359,1.655,0.086,2.493-0.616c0.115-0.75,0.346-1.535,0.732-2.311
						c0.355-0.715,0.794-1.337,1.274-1.861C48.353,22.979,47.979,22.135,47.89,21.131z"/>
				</g>
			</g>
			
				<ellipse transform="matrix(0.8955 0.4451 -0.4451 0.8955 12.6887 -16.4643)" fill="#FFFFFF" cx="41.405" cy="18.788" rx="2.04" ry="3.245"/>
			
				<ellipse transform="matrix(0.8955 0.4452 -0.4452 0.8955 16.066 -15.2345)" fill="#FFFFFF" cx="40.467" cy="26.587" rx="2.04" ry="3.245"/>
			<path fill="#FFFFFF" d="M41.321,35.306c-0.797,1.606-2.263,2.5-3.271,1.998c-1.01-0.5-1.18-2.209-0.384-3.812
				c0.798-1.607,2.262-2.502,3.271-2C41.947,31.992,42.118,33.701,41.321,35.306z"/>
		</g>
	</g>
</g>
</svg>
